
<svg width="64" height="32" viewBox="0 0 64 32" fill="none" xmlns="http://www.w3.org/2000/svg">
<path d="M55.0705 31.9996C53.986 32.0003 52.9255 31.7039 52.0234 31.1479C51.1212 30.5919 50.4178 29.8012 50.0022 28.8759C49.5867 27.9506 49.4775 26.9322 49.6886 25.9496C49.8997 24.967 50.4216 24.0643 51.1882 23.3557C51.9548 22.6471 52.9318 22.1644 53.9954 21.9687C55.0591 21.773 56.1617 21.873 57.1638 22.2562C58.1658 22.6394 59.0224 23.2885 59.625 24.1214C60.2276 24.9543 60.5493 25.9336 60.5493 26.9353C60.5486 28.2776 59.9713 29.5648 58.9441 30.5143C57.9169 31.4637 56.5237 31.9979 55.0705 31.9996ZM55.0705 23.7185C54.3815 23.7177 53.7078 23.9058 53.1345 24.2588C52.5613 24.6118 52.1143 25.114 51.85 25.7017C51.5858 26.2895 51.5163 26.9364 51.6502 27.5606C51.7841 28.1849 52.1155 28.7584 52.6024 29.2087C53.0894 29.659 53.7099 29.9657 54.3856 30.0901C55.0613 30.2145 55.7618 30.1511 56.3984 29.9077C57.035 29.6643 57.5792 29.252 57.962 28.7229C58.3449 28.1938 58.5493 27.5717 58.5493 26.9353C58.5489 26.0829 58.1824 25.2654 57.5302 24.6623C56.878 24.0592 55.9934 23.7198 55.0705 23.7185Z" fill="#303030"/>
<path d="M26.1778 31.9996C25.0932 32.0005 24.0326 31.7044 23.1303 31.1485C22.228 30.5926 21.5244 29.802 21.1086 28.8767C20.6928 27.9515 20.5834 26.9331 20.7944 25.9504C21.0054 24.9677 21.5271 24.0649 22.2937 23.3561C23.0602 22.6474 24.0372 22.1646 25.1009 21.9688C26.1646 21.773 27.2673 21.873 28.2694 22.2561C29.2716 22.6393 30.1282 23.2884 30.7309 24.1213C31.3336 24.9542 31.6553 25.9335 31.6553 26.9353C31.6542 28.2773 31.0769 29.5641 30.0501 30.5135C29.0233 31.4628 27.6307 31.9973 26.1778 31.9996ZM26.1778 23.7185C25.4888 23.7175 24.8149 23.9053 24.2415 24.2582C23.668 24.6111 23.2208 25.1131 22.9564 25.7009C22.692 26.2886 22.6222 26.9355 22.756 27.5599C22.8898 28.1842 23.2211 28.7579 23.7079 29.2083C24.1948 29.6586 24.8153 29.9655 25.4911 30.09C26.1668 30.2145 26.8673 30.1511 27.504 29.9078C28.1407 29.6645 28.685 29.2522 29.0679 28.723C29.4508 28.1939 29.6552 27.5718 29.6552 26.9353C29.6545 26.0832 29.2881 25.2661 28.6363 24.6631C27.9844 24.0601 27.1003 23.7204 26.1778 23.7185Z" fill="#303030"/>
<path d="M62.284 27.8597H59.5493C59.2841 27.8597 59.0297 27.7624 58.8422 27.5892C58.6546 27.4159 58.5493 27.181 58.5493 26.936C58.5493 26.691 58.6546 26.4561 58.8422 26.2829C59.0297 26.1097 59.2841 26.0123 59.5493 26.0123H62.0013V21.1144C62.0007 20.4522 61.8171 19.8011 61.468 19.2227L56.0545 10.258C56.0083 10.1815 55.9408 10.1178 55.859 10.0734C55.7772 10.029 55.6841 10.0056 55.5892 10.0056H48.2117V26.016H50.5931C50.8583 26.016 51.1127 26.1134 51.3002 26.2866C51.4878 26.4598 51.5931 26.6947 51.5931 26.9397C51.5931 27.1847 51.4878 27.4196 51.3002 27.5929C51.1127 27.7661 50.8583 27.8634 50.5931 27.8634H47.2117C46.9465 27.8634 46.6921 27.7661 46.5046 27.5929C46.317 27.4196 46.2117 27.1847 46.2117 26.9397V9.08188C46.2117 8.83691 46.317 8.60197 46.5046 8.42874C46.6921 8.25552 46.9465 8.1582 47.2117 8.1582H55.5892C56.0403 8.158 56.4834 8.26908 56.8725 8.47996C57.2616 8.69085 57.5827 8.99388 57.8026 9.35776L63.2147 18.3236C63.7292 19.177 63.9995 20.1376 64 21.1144V26.2747C63.9993 26.6948 63.8183 27.0976 63.4966 27.3947C63.175 27.6918 62.7389 27.859 62.284 27.8597Z" fill="#303030"/>
<path d="M21.6991 27.8593H12.1109C11.8456 27.8593 11.5913 27.762 11.4037 27.5887C11.2162 27.4155 11.1108 27.1806 11.1108 26.9356V19.8319C11.1108 19.5869 11.2162 19.352 11.4037 19.1787C11.5913 19.0055 11.8456 18.9082 12.1109 18.9082C12.3761 18.9082 12.6304 19.0055 12.818 19.1787C13.0055 19.352 13.1109 19.5869 13.1109 19.8319V26.0119H21.6991C21.9643 26.0119 22.2186 26.1092 22.4062 26.2825C22.5937 26.4557 22.6991 26.6906 22.6991 26.9356C22.6991 27.1806 22.5937 27.4155 22.4062 27.5887C22.2186 27.762 21.9643 27.8593 21.6991 27.8593Z" fill="#303030"/>
<path d="M12.1109 16.5545C11.8456 16.5545 11.5913 16.4571 11.4037 16.2839C11.2162 16.1107 11.1108 15.8757 11.1108 15.6308V9.42856C11.1108 9.18359 11.2162 8.94865 11.4037 8.77542C11.5913 8.6022 11.8456 8.50488 12.1109 8.50488C12.3761 8.50488 12.6304 8.6022 12.818 8.77542C13.0055 8.94865 13.1109 9.18359 13.1109 9.42856V15.6345C13.1098 15.8788 13.004 16.1128 12.8166 16.2852C12.6291 16.4576 12.3754 16.5545 12.1109 16.5545Z" fill="#303030"/>
<path d="M47.2116 27.8595H30.6552C30.39 27.8595 30.1357 27.7621 29.9481 27.5889C29.7606 27.4157 29.6552 27.1807 29.6552 26.9358C29.6552 26.6908 29.7606 26.4559 29.9481 26.2826C30.1357 26.1094 30.39 26.0121 30.6552 26.0121H46.2116V1.84736H13.1109V5.6517C13.1109 5.89667 13.0055 6.13161 12.818 6.30484C12.6304 6.47806 12.3761 6.57538 12.1109 6.57538C11.8456 6.57538 11.5913 6.47806 11.4037 6.30484C11.2162 6.13161 11.1108 5.89667 11.1108 5.6517V1.6774C11.1115 1.23252 11.3033 0.806054 11.644 0.491585C11.9847 0.177117 12.4466 0.000325687 12.9282 0H46.3956C46.877 0.00065154 47.3385 0.177587 47.6789 0.49202C48.0193 0.806453 48.2109 1.23273 48.2116 1.6774V26.9358C48.2116 27.1807 48.1062 27.4157 47.9187 27.5889C47.7312 27.7621 47.4768 27.8595 47.2116 27.8595Z" fill="#303030"/>
<path d="M16.0643 20.7556H3.37209C3.10687 20.7556 2.85251 20.6582 2.66497 20.485C2.47743 20.3118 2.37207 20.0769 2.37207 19.8319C2.37207 19.5869 2.47743 19.352 2.66497 19.1787C2.85251 19.0055 3.10687 18.9082 3.37209 18.9082H16.0643C16.3296 18.9082 16.5839 19.0055 16.7715 19.1787C16.959 19.352 17.0644 19.5869 17.0644 19.8319C17.0644 20.0769 16.959 20.3118 16.7715 20.485C16.5839 20.6582 16.3296 20.7556 16.0643 20.7556Z" fill="#303030"/>
<path d="M26.1778 16.5544H8.46682C8.2016 16.5544 7.94724 16.4571 7.7597 16.2839C7.57216 16.1106 7.4668 15.8757 7.4668 15.6307C7.4668 15.3857 7.57216 15.1508 7.7597 14.9776C7.94724 14.8043 8.2016 14.707 8.46682 14.707H26.1778C26.4431 14.707 26.6974 14.8043 26.885 14.9776C27.0725 15.1508 27.1779 15.3857 27.1779 15.6307C27.1779 15.8757 27.0725 16.1106 26.885 16.2839C26.6974 16.4571 26.4431 16.5544 26.1778 16.5544Z" fill="#303030"/>
<path d="M7.91616 11.6784H1.00002C0.734798 11.6784 0.480439 11.5811 0.292899 11.4079C0.105359 11.2347 0 10.9997 0 10.7547C0 10.5098 0.105359 10.2748 0.292899 10.1016C0.480439 9.92837 0.734798 9.83105 1.00002 9.83105H7.91616C8.18138 9.83105 8.43574 9.92837 8.62328 10.1016C8.81082 10.2748 8.91618 10.5098 8.91618 10.7547C8.91618 10.9997 8.81082 11.2347 8.62328 11.4079C8.43574 11.5811 8.18138 11.6784 7.91616 11.6784Z" fill="#303030"/>
<path d="M19.0056 6.57588H6.79738C6.53216 6.57588 6.2778 6.47856 6.09026 6.30534C5.90272 6.13211 5.79736 5.89717 5.79736 5.6522C5.79736 5.40722 5.90272 5.17228 6.09026 4.99906C6.2778 4.82583 6.53216 4.72852 6.79738 4.72852H19.0056C19.2709 4.72852 19.5252 4.82583 19.7128 4.99906C19.9003 5.17228 20.0057 5.40722 20.0057 5.6522C20.0057 5.89717 19.9003 6.13211 19.7128 6.30534C19.5252 6.47856 19.2709 6.57588 19.0056 6.57588Z" fill="#303030"/>
</svg>
