 <svg xmlns="http://www.w3.org/2000/svg" viewBox="0 0 30 24">
    <path d="M.79,0C.56,.02,.35,.14,.22,.33,.07,.54-.01,.79,0,1.05c.01,.27,.11,.51,.27,.69,.16,.18,.38,.27,.6,.26H29.16c.22,0,.44-.1,.6-.29,.16-.19,.25-.44,.25-.71s-.09-.52-.25-.71c-.14-.18-.36-.29-.6-.29H.87s-.05,0-.08,0ZM.79,11c-.23,.02-.44,.14-.58,.33-.15,.21-.23,.46-.22,.72,.01,.27,.11,.51,.27,.69,.16,.18,.38,.27,.6,.26H29.16c.22,0,.44-.1,.6-.29,.16-.19,.25-.44,.25-.71s-.09-.52-.25-.71c-.14-.18-.36-.29-.6-.29H.87s-.05,0-.08,0Zm0,11c-.23,.02-.44,.14-.58,.33-.15,.21-.23,.46-.22,.72,.01,.26,.11,.51,.27,.69,.16,.18,.38,.27,.6,.26H29.16c.22,0,.44-.1,.6-.29,.16-.19,.25-.44,.25-.71s-.09-.52-.25-.71c-.14-.18-.36-.29-.6-.29H.87s-.05,0-.08,0Z"></path>
</svg>