<svg class="ss__icon ss__icon--sort ss-1v72vbw" viewBox="0 0 56 56" xmlns="http://www.w3.org/2000/svg"><path d="M48.364 35.636c0 0.676-0.278 1.312-0.756 1.79l-17.818 17.818c-0.477 0.477-1.114 0.756-1.79 0.756s-1.312-0.278-1.79-0.756l-17.818-17.818c-0.477-0.477-0.756-1.114-0.756-1.79 0-1.392 1.153-2.545 2.545-2.545h35.636c1.392 0 2.545 1.153 2.545 2.545zM48.364 20.364c0 1.392-1.153 2.545-2.545 2.545h-35.636c-1.392 0-2.545-1.153-2.545-2.545 0-0.676 0.278-1.312 0.756-1.79l17.818-17.818c0.477-0.477 1.114-0.756 1.79-0.756s1.312 0.278 1.79 0.756l17.818 17.818c0.477 0.477 0.756 1.114 0.756 1.79z"></path></svg>