
<svg width="154" height="95" viewBox="0 0 154 95" fill="none" xmlns="http://www.w3.org/2000/svg">
<path d="M138.825 82.9445C140.02 82.0562 140.875 80.9521 141.407 79.5989L153.32 46.8976H122.221L121.366 49.2387C121.283 49.0727 121.2 48.915 121.092 48.7572C120.801 48.3338 120.444 47.9851 120.046 47.7029H121.391L123.524 40.9949H126.148L129.361 30.9081H126.737L133.37 10.0619H121.831L106.829 29.2809C106.605 28.733 106.273 28.2348 105.833 27.7948L105.767 27.7284L101.524 24.2416H109.984L112.931 16.2137C113.188 15.5661 113.321 14.9186 113.321 14.2959C113.321 13.4408 113.081 12.6521 112.641 11.9963C111.86 10.751 110.532 10.0702 108.896 10.0702H97.5227C96.3272 10.0702 95.1733 10.4189 94.0857 11.108L94.4593 10.0702H84.0653L79.2751 23.3118H78.3038L83.1521 10.0702H72.7498L72.0856 11.8884C71.297 10.7178 70.0018 10.0702 68.4245 10.0702H57.8478L61.509 0H34.5111L26.3669 22.382H22.7141L30.8583 0H20.4725L0 56.2705H10.4023L19.0446 32.527H22.6975L14.0552 56.2705H24.4575L33.7888 30.659L33.8802 29.6296V29.5383C33.8802 28.982 33.7639 28.4424 33.5315 27.9609C34.4696 27.3465 35.1919 26.5081 35.6817 25.4786L35.7232 25.3956L41.244 10.1533H43.2115L29.8122 46.9391H27.936L24.2499 57.084H29.4054L19.4597 84.3725H29.862L39.8077 57.084H41.9579L32.0122 84.3725H32.7179L28.7911 94.8412H139.896L144.387 84.2065H136.301C137.164 83.9574 138.011 83.5506 138.825 82.9445ZM126.679 84.1649H123.084C123.79 83.9989 124.454 83.7 125.044 83.2517C125.459 83.6917 126.023 83.9906 126.679 84.1649ZM67.1294 47.4787H68.1754C67.7188 47.6863 67.2705 47.9519 66.8388 48.2674L67.1294 47.4787ZM59.3256 46.9059H58.844C59.0433 46.8146 59.2425 46.7066 59.4418 46.5904L59.3256 46.9059ZM55.8305 47.4787H56.2456C56.4116 47.4787 56.5776 47.4704 56.7437 47.4538L52.161 60.1391H51.1897L55.8305 47.4787ZM48.4749 70.2841L43.4357 84.1649H42.4561L47.487 70.2841H48.4749ZM67.8267 70.2841H69.4871L64.4479 84.1649H62.7875L67.8267 70.2841ZM86.1242 49.2387C86.0578 49.0976 85.9831 48.9648 85.9 48.8319C85.5015 48.1927 84.9453 47.7029 84.2812 47.3708C84.6132 47.4372 84.9702 47.4787 85.3355 47.4787H86.7634L86.1242 49.2387ZM81.5913 45.5527C81.9898 46.2002 82.5461 46.69 83.2102 47.0138C82.8781 46.9474 82.5211 46.9059 82.1559 46.9059H81.1015L81.5913 45.5527ZM74.3188 57.0508L73.1815 60.1475H71.5294L72.6668 57.0508H74.3188ZM75.6305 81.9981C75.697 82.1393 75.7717 82.2721 75.8547 82.3966C76.4109 83.2849 77.2494 83.891 78.2789 84.1566H74.8336L75.6305 81.9981ZM91.1303 83.4925C91.5536 83.7996 92.0269 84.0321 92.5499 84.1649H90.8812L91.1303 83.4925ZM101.665 74.1943L107.917 57.0508H109.577L103.326 74.1943H101.665ZM109.137 82.9778C109.743 82.5461 110.258 82.0646 110.681 81.5332C110.789 81.8404 110.93 82.1393 111.105 82.4049C111.661 83.2932 112.499 83.8993 113.529 84.1649H106.597C107.46 83.9574 108.307 83.5589 109.137 82.9778ZM99.4073 20.1903H101.059L100.022 23.0046L98.7597 21.9669L99.4073 20.1903ZM100.669 46.0923C101.865 45.204 102.72 44.0998 103.251 42.7549L103.899 40.9949H112.367L110.49 46.8976H106.041C104.654 46.8976 103.326 47.3625 102.08 48.284C100.893 49.1723 100.03 50.2765 99.4986 51.6297L91.2797 74.186H87.4442L97.1907 47.4538C98.3944 47.3708 99.565 46.9142 100.669 46.0923ZM95.9121 34.3119L94.8163 37.3421H93.1642L94.6586 33.2658L95.9121 34.3119ZM86.423 28.9571C87.0623 28.5254 87.5936 27.9609 88.0253 27.305C88.2578 27.7367 88.565 28.1352 88.9552 28.4922L88.9883 28.5254L93.6623 32.4273H86.3317L86.4147 32.1949C86.6057 31.6137 86.7053 31.0824 86.7053 30.5677C86.7053 29.9783 86.5891 29.4552 86.3649 28.9903C86.3815 28.982 86.4064 28.9654 86.423 28.9571ZM75.589 33.4319L70.6992 46.9059C70.3588 46.9142 70.0184 46.9391 69.6864 47.0055L74.6094 33.4319H75.589ZM60.5875 20.1903L59.0931 24.2333H67.5777L64.589 32.4273H56.1459L54.3444 37.3421H52.684L58.9354 20.1986H60.5875V20.1903ZM56.1376 10.1201C55.0916 10.2778 54.0787 10.7095 53.124 11.4151L53.5972 10.1201H56.1376ZM40.8621 45.0795C40.9534 45.2621 41.053 45.4448 41.1693 45.6274C41.5428 46.1753 42.0244 46.5987 42.5723 46.9059H40.1896L40.8621 45.0795Z" fill="#1E2326"/>
<path d="M23.0459 54.2538H16.8941L25.5365 30.5103H17.6413L8.99902 54.2538H2.84729L21.867 1.97656H28.0187L19.8745 24.3586H27.7697L35.9139 1.97656H58.6694L56.4279 8.12828H39.8324L33.8633 24.5993C33.5312 25.305 33.0414 25.8612 32.4022 26.2763C31.7629 26.6914 31.1901 26.8989 30.692 26.8989H29.6957L29.3221 27.8952H30.3184C30.8165 27.8952 31.2316 28.1027 31.5637 28.5178C31.7712 28.8084 31.8708 29.1405 31.8708 29.5141L31.8044 30.1948L23.0459 54.2538Z" fill="url(#paint0_linear_21_535)"/>
<path d="M38.587 45.4865H32.4353L44.6225 12.0381H50.7743L38.587 45.4865Z" fill="url(#paint1_linear_21_535)"/>
<path d="M56.2452 45.4865H44.8715C43.9583 45.4865 43.2776 45.1545 42.821 44.4903C42.5719 44.1167 42.4474 43.7016 42.4474 43.245C42.4474 42.8715 42.5304 42.4813 42.6964 42.0662L52.3931 15.4585C52.7667 14.5038 53.3976 13.6985 54.2859 13.0343C55.1742 12.3702 56.0958 12.0381 57.0505 12.0381H68.4241C69.3788 12.0381 70.0596 12.3702 70.4747 13.0343C70.7238 13.4079 70.8483 13.823 70.8483 14.2796C70.8483 14.6532 70.7653 15.0434 70.5992 15.4585L68.1086 22.2329H61.9569L63.4513 18.1898H57.5486L49.8444 39.3265H55.7471L57.5486 34.4118H63.7003L60.9026 42.0578C60.529 43.0126 59.898 43.8179 59.0097 44.482C58.1131 45.1545 57.1916 45.4865 56.2452 45.4865Z" fill="url(#paint2_linear_21_535)"/>
<path d="M79.4906 45.4865H73.3388L78.4362 31.4397H73.2143L68.1169 45.4865H61.9652L74.1524 12.0381H80.3042L75.4558 25.2797H80.6777L85.468 12.0381H91.6197L86.7714 25.4623C86.4393 26.251 85.9495 26.857 85.3102 27.297C84.671 27.7287 84.0566 27.9529 83.4755 27.9529H82.4793L82.1057 29.0072H83.1019C83.683 29.0072 84.1397 29.2314 84.4717 29.688C84.6378 29.8955 84.7208 30.1861 84.7208 30.5597C84.7208 30.8503 84.6544 31.1823 84.5298 31.5559L79.4906 45.4865Z" fill="url(#paint3_linear_21_535)"/>
<path d="M96.7088 45.487H85.3352C84.3805 45.487 83.6997 45.155 83.2846 44.4908C83.0355 44.1172 82.911 43.7021 82.911 43.2455C82.911 42.8719 82.994 42.4817 83.1601 42.0666L85.9578 34.4206H92.1095L90.308 39.3353H96.2107L98.2613 33.6817L90.2997 27.0319C89.7601 26.5337 89.4944 25.936 89.4944 25.2303C89.4944 24.8568 89.5775 24.4417 89.7435 23.985L92.8484 15.4673C93.222 14.5126 93.8529 13.7073 94.7412 13.0431C95.6295 12.379 96.5511 12.0469 97.5058 12.0469H108.879C109.834 12.0469 110.515 12.379 110.93 13.0431C111.179 13.4167 111.304 13.8318 111.304 14.2884C111.304 14.662 111.221 15.0522 111.055 15.4673L108.564 22.2416H102.412L103.907 18.1986H98.0039L96.385 22.6152L104.405 29.207C104.903 29.7051 105.152 30.3028 105.152 31.0085C105.152 31.3821 105.085 31.7972 104.969 32.2538L101.366 42.075C100.993 43.0297 100.362 43.8349 99.4734 44.4991C98.585 45.155 97.6635 45.487 96.7088 45.487Z" fill="url(#paint4_linear_21_535)"/>
<path d="M23.0459 54.2538H16.8941L25.5365 30.5103H17.6413L8.99902 54.2538H2.84729L21.867 1.97656H28.0187L19.8745 24.3586H27.7697L35.9139 1.97656H58.6694L56.4279 8.12828H39.8324L33.8633 24.5993C33.5312 25.305 33.0414 25.8612 32.4022 26.2763C31.7629 26.6914 31.1901 26.8989 30.692 26.8989H29.6957L29.3221 27.8952H30.3184C30.8165 27.8952 31.2316 28.1027 31.5637 28.5178C31.7712 28.8084 31.8708 29.1405 31.8708 29.5141L31.8044 30.1948L23.0459 54.2538Z" fill="url(#paint5_linear_21_535)"/>
<path d="M38.587 45.4865H32.4353L44.6225 12.0381H50.7743L38.587 45.4865Z" fill="url(#paint6_linear_21_535)"/>
<path d="M56.2452 45.4865H44.8715C43.9583 45.4865 43.2776 45.1545 42.821 44.4903C42.5719 44.1167 42.4474 43.7016 42.4474 43.245C42.4474 42.8715 42.5304 42.4813 42.6964 42.0662L52.3931 15.4585C52.7667 14.5038 53.3976 13.6985 54.2859 13.0343C55.1742 12.3702 56.0958 12.0381 57.0505 12.0381H68.4241C69.3788 12.0381 70.0596 12.3702 70.4747 13.0343C70.7238 13.4079 70.8483 13.823 70.8483 14.2796C70.8483 14.6532 70.7653 15.0434 70.5992 15.4585L68.1086 22.2329H61.9569L63.4513 18.1898H57.5486L49.8444 39.3265H55.7471L57.5486 34.4118H63.7003L60.9026 42.0578C60.529 43.0126 59.898 43.8179 59.0097 44.482C58.1131 45.1545 57.1916 45.4865 56.2452 45.4865Z" fill="url(#paint7_linear_21_535)"/>
<path d="M79.4906 45.4865H73.3388L78.4362 31.4397H73.2143L68.1169 45.4865H61.9652L74.1524 12.0381H80.3042L75.4558 25.2797H80.6777L85.468 12.0381H91.6197L86.7714 25.4623C86.4393 26.251 85.9495 26.857 85.3102 27.297C84.671 27.7287 84.0566 27.9529 83.4755 27.9529H82.4793L82.1057 29.0072H83.1019C83.683 29.0072 84.1397 29.2314 84.4717 29.688C84.6378 29.8955 84.7208 30.1861 84.7208 30.5597C84.7208 30.8503 84.6544 31.1823 84.5298 31.5559L79.4906 45.4865Z" fill="url(#paint8_linear_21_535)"/>
<path d="M96.7088 45.487H85.3352C84.3805 45.487 83.6997 45.155 83.2846 44.4908C83.0355 44.1172 82.911 43.7021 82.911 43.2455C82.911 42.8719 82.994 42.4817 83.1601 42.0666L85.9578 34.4206H92.1095L90.308 39.3353H96.2107L98.2613 33.6817L90.2997 27.0319C89.7601 26.5337 89.4944 25.936 89.4944 25.2303C89.4944 24.8568 89.5775 24.4417 89.7435 23.985L92.8484 15.4673C93.222 14.5126 93.8529 13.7073 94.7412 13.0431C95.6295 12.379 96.5511 12.0469 97.5058 12.0469H108.879C109.834 12.0469 110.515 12.379 110.93 13.0431C111.179 13.4167 111.304 13.8318 111.304 14.2884C111.304 14.662 111.221 15.0522 111.055 15.4673L108.564 22.2416H102.412L103.907 18.1986H98.0039L96.385 22.6152L104.405 29.207C104.903 29.7051 105.152 30.3028 105.152 31.0085C105.152 31.3821 105.085 31.7972 104.969 32.2538L101.366 42.075C100.993 43.0297 100.362 43.8349 99.4734 44.4991C98.585 45.155 97.6635 45.487 96.7088 45.487Z" fill="url(#paint9_linear_21_535)"/>
<path d="M28.4421 82.3464H22.2904L32.2361 55.058H27.0723L29.3138 48.9062H45.7849L43.5433 55.058H38.3795L28.4421 82.3464Z" fill="url(#paint10_linear_21_535)"/>
<path d="M52.3766 82.3469H46.2248L51.3222 68.3H46.1003L41.0029 82.3469H34.8512L47.0384 48.8984H53.1901L48.3418 62.14H53.5637L58.3539 48.8984H64.5057L52.3766 82.3469Z" fill="url(#paint11_linear_21_535)"/>
<path d="M73.3887 82.3469H67.237L72.3344 68.3H66.4317L61.3343 82.3469H55.1826L66.1246 52.3188C66.4981 51.3641 67.1291 50.5588 68.0174 49.8947C68.9057 49.2305 69.8272 48.8984 70.7819 48.8984H82.1556C83.1103 48.8984 83.791 49.2305 84.2061 49.8947C84.4552 50.2682 84.5797 50.6833 84.5797 51.1399C84.5797 51.5135 84.4967 51.9037 84.3307 52.3188L73.3887 82.3469ZM74.5676 62.14L77.1827 55.0502H71.2801L68.6732 62.14H74.5676Z" fill="url(#paint12_linear_21_535)"/>
<path d="M89.4281 82.3469H79.6069C78.6522 82.3469 77.9714 82.0148 77.5563 81.3507C77.3073 80.9771 77.1827 80.562 77.1827 80.1054C77.1827 79.7318 77.2657 79.3416 77.4318 78.9265L88.3737 48.8984H94.5255L84.5797 76.1869H91.6696L89.4281 82.3469Z" fill="url(#paint13_linear_21_535)"/>
<path d="M105.218 82.3469H93.8447C92.9315 82.3469 92.2507 82.0148 91.7941 81.3507C91.5451 80.9771 91.4205 80.562 91.4205 80.1054C91.4205 79.7318 91.5036 79.3416 91.6696 78.9265L101.366 52.3188C101.74 51.3641 102.371 50.5588 103.259 49.8947C104.147 49.2305 105.069 48.8984 106.024 48.8984H117.397C118.31 48.8984 118.991 49.2305 119.448 49.8947C119.697 50.2682 119.821 50.6833 119.821 51.1399C119.821 51.5135 119.738 51.9037 119.572 52.3188L109.876 78.9265C109.544 79.8812 108.913 80.6865 107.983 81.3507C107.045 82.0148 106.123 82.3469 105.218 82.3469ZM104.72 76.1869L112.424 55.0502H106.522L98.8176 76.1869H104.72Z" fill="url(#paint14_linear_21_535)"/>
<path d="M134.864 82.3469H127.899C126.695 82.3469 126.098 81.8073 126.098 80.728C126.098 80.479 126.264 79.8978 126.596 78.9846H125.541L125.168 79.9809C124.96 80.562 124.545 81.1016 123.922 81.5997C123.3 82.0978 122.578 82.3469 121.747 82.3469H114.848C113.894 82.3469 113.213 82.0148 112.798 81.3507C112.549 80.9771 112.424 80.562 112.424 80.1054C112.424 79.7318 112.507 79.3416 112.673 78.9265L123.615 48.8984H129.767L119.821 76.1869H123.989L133.935 48.8984H140.086L130.141 76.1869H134.366L144.254 48.8984H150.472L139.53 78.9265C139.157 79.8812 138.526 80.6865 137.637 81.3507C136.741 82.0148 135.819 82.3469 134.864 82.3469Z" fill="url(#paint15_linear_21_535)"/>
<path d="M28.4421 82.3464H22.2904L32.2361 55.058H27.0723L29.3138 48.9062H45.7849L43.5433 55.058H38.3795L28.4421 82.3464Z" fill="url(#paint16_linear_21_535)"/>
<path d="M52.3766 82.3469H46.2248L51.3222 68.3H46.1003L41.0029 82.3469H34.8512L47.0384 48.8984H53.1901L48.3418 62.14H53.5637L58.3539 48.8984H64.5057L52.3766 82.3469Z" fill="url(#paint17_linear_21_535)"/>
<path d="M73.3887 82.3469H67.237L72.3344 68.3H66.4317L61.3343 82.3469H55.1826L66.1246 52.3188C66.4981 51.3641 67.1291 50.5588 68.0174 49.8947C68.9057 49.2305 69.8272 48.8984 70.7819 48.8984H82.1556C83.1103 48.8984 83.791 49.2305 84.2061 49.8947C84.4552 50.2682 84.5797 50.6833 84.5797 51.1399C84.5797 51.5135 84.4967 51.9037 84.3307 52.3188L73.3887 82.3469ZM74.5676 62.14L77.1827 55.0502H71.2801L68.6732 62.14H74.5676Z" fill="url(#paint18_linear_21_535)"/>
<path d="M89.4281 82.3469H79.6069C78.6522 82.3469 77.9714 82.0148 77.5563 81.3507C77.3073 80.9771 77.1827 80.562 77.1827 80.1054C77.1827 79.7318 77.2657 79.3416 77.4318 78.9265L88.3737 48.8984H94.5255L84.5797 76.1869H91.6696L89.4281 82.3469Z" fill="url(#paint19_linear_21_535)"/>
<path d="M105.218 82.3469H93.8447C92.9315 82.3469 92.2507 82.0148 91.7941 81.3507C91.5451 80.9771 91.4205 80.562 91.4205 80.1054C91.4205 79.7318 91.5036 79.3416 91.6696 78.9265L101.366 52.3188C101.74 51.3641 102.371 50.5588 103.259 49.8947C104.147 49.2305 105.069 48.8984 106.024 48.8984H117.397C118.31 48.8984 118.991 49.2305 119.448 49.8947C119.697 50.2682 119.821 50.6833 119.821 51.1399C119.821 51.5135 119.738 51.9037 119.572 52.3188L109.876 78.9265C109.544 79.8812 108.913 80.6865 107.983 81.3507C107.045 82.0148 106.123 82.3469 105.218 82.3469ZM104.72 76.1869L112.424 55.0502H106.522L98.8176 76.1869H104.72Z" fill="url(#paint20_linear_21_535)"/>
<path d="M134.864 82.3469H127.899C126.695 82.3469 126.098 81.8073 126.098 80.728C126.098 80.479 126.264 79.8978 126.596 78.9846H125.541L125.168 79.9809C124.96 80.562 124.545 81.1016 123.922 81.5997C123.3 82.0978 122.578 82.3469 121.747 82.3469H114.848C113.894 82.3469 113.213 82.0148 112.798 81.3507C112.549 80.9771 112.424 80.562 112.424 80.1054C112.424 79.7318 112.507 79.3416 112.673 78.9265L123.615 48.8984H129.767L119.821 76.1869H123.989L133.935 48.8984H140.086L130.141 76.1869H134.366L144.254 48.8984H150.472L139.53 78.9265C139.157 79.8812 138.526 80.6865 137.637 81.3507C136.741 82.0148 135.819 82.3469 134.864 82.3469Z" fill="url(#paint21_linear_21_535)"/>
<path d="M122.802 12.0547H130.639L124.006 32.9008H126.629L124.686 39.0027H122.063L119.929 45.7107H112.947L115.081 39.0027H104.288L106.032 33.5318L122.802 12.0547ZM120.328 22.2162L112.034 32.9008H117.024L120.427 22.2162H120.328Z" fill="url(#paint22_linear_21_535)"/>
<path d="M122.802 12.0547H130.639L124.006 32.9008H126.629L124.686 39.0027H122.063L119.929 45.7107H112.947L115.081 39.0027H104.288L106.032 33.5318L122.802 12.0547ZM120.328 22.2162L112.034 32.9008H117.024L120.427 22.2162H120.328Z" fill="#47979B"/>
<path d="M138.559 92.808H31.6549L34.1455 86.1582H141.365L138.559 92.808Z" fill="url(#paint23_linear_21_535)"/>
<defs>
<linearGradient id="paint0_linear_21_535" x1="30.7552" y1="113.919" x2="30.7552" y2="-99.9228" gradientUnits="userSpaceOnUse">
<stop offset="0.2172" stop-color="#B52F2B"/>
<stop offset="0.2263" stop-color="#B73B2D"/>
<stop offset="0.2582" stop-color="#BE5A34"/>
<stop offset="0.2936" stop-color="#C3723C"/>
<stop offset="0.3322" stop-color="#C98643"/>
<stop offset="0.375" stop-color="#CD964A"/>
<stop offset="0.4238" stop-color="#D1A450"/>
<stop offset="0.4824" stop-color="#D5AE54"/>
<stop offset="0.5605" stop-color="#D7B557"/>
<stop offset="0.738" stop-color="#D8B658"/>
</linearGradient>
<linearGradient id="paint1_linear_21_535" x1="41.602" y1="113.918" x2="41.602" y2="-99.9232" gradientUnits="userSpaceOnUse">
<stop offset="0.2172" stop-color="#B52F2B"/>
<stop offset="0.2263" stop-color="#B73B2D"/>
<stop offset="0.2582" stop-color="#BE5A34"/>
<stop offset="0.2936" stop-color="#C3723C"/>
<stop offset="0.3322" stop-color="#C98643"/>
<stop offset="0.375" stop-color="#CD964A"/>
<stop offset="0.4238" stop-color="#D1A450"/>
<stop offset="0.4824" stop-color="#D5AE54"/>
<stop offset="0.5605" stop-color="#D7B557"/>
<stop offset="0.738" stop-color="#D8B658"/>
</linearGradient>
<linearGradient id="paint2_linear_21_535" x1="56.6455" y1="113.918" x2="56.6455" y2="-99.9232" gradientUnits="userSpaceOnUse">
<stop offset="0.2172" stop-color="#B52F2B"/>
<stop offset="0.2263" stop-color="#B73B2D"/>
<stop offset="0.2582" stop-color="#BE5A34"/>
<stop offset="0.2936" stop-color="#C3723C"/>
<stop offset="0.3322" stop-color="#C98643"/>
<stop offset="0.375" stop-color="#CD964A"/>
<stop offset="0.4238" stop-color="#D1A450"/>
<stop offset="0.4824" stop-color="#D5AE54"/>
<stop offset="0.5605" stop-color="#D7B557"/>
<stop offset="0.738" stop-color="#D8B658"/>
</linearGradient>
<linearGradient id="paint3_linear_21_535" x1="76.7863" y1="113.918" x2="76.7863" y2="-99.9232" gradientUnits="userSpaceOnUse">
<stop offset="0.2172" stop-color="#B52F2B"/>
<stop offset="0.2263" stop-color="#B73B2D"/>
<stop offset="0.2582" stop-color="#BE5A34"/>
<stop offset="0.2936" stop-color="#C3723C"/>
<stop offset="0.3322" stop-color="#C98643"/>
<stop offset="0.375" stop-color="#CD964A"/>
<stop offset="0.4238" stop-color="#D1A450"/>
<stop offset="0.4824" stop-color="#D5AE54"/>
<stop offset="0.5605" stop-color="#D7B557"/>
<stop offset="0.738" stop-color="#D8B658"/>
</linearGradient>
<linearGradient id="paint4_linear_21_535" x1="97.1142" y1="113.919" x2="97.1142" y2="-99.9227" gradientUnits="userSpaceOnUse">
<stop offset="0.2172" stop-color="#B52F2B"/>
<stop offset="0.2263" stop-color="#B73B2D"/>
<stop offset="0.2582" stop-color="#BE5A34"/>
<stop offset="0.2936" stop-color="#C3723C"/>
<stop offset="0.3322" stop-color="#C98643"/>
<stop offset="0.375" stop-color="#CD964A"/>
<stop offset="0.4238" stop-color="#D1A450"/>
<stop offset="0.4824" stop-color="#D5AE54"/>
<stop offset="0.5605" stop-color="#D7B557"/>
<stop offset="0.738" stop-color="#D8B658"/>
</linearGradient>
<linearGradient id="paint5_linear_21_535" x1="30.7552" y1="113.919" x2="30.7552" y2="-99.9228" gradientUnits="userSpaceOnUse">
<stop offset="0.2172" stop-color="#B52F2B"/>
<stop offset="0.2263" stop-color="#B73B2D"/>
<stop offset="0.2582" stop-color="#BE5A34"/>
<stop offset="0.2936" stop-color="#C3723C"/>
<stop offset="0.3322" stop-color="#C98643"/>
<stop offset="0.375" stop-color="#CD964A"/>
<stop offset="0.4238" stop-color="#D1A450"/>
<stop offset="0.4824" stop-color="#D5AE54"/>
<stop offset="0.5605" stop-color="#D7B557"/>
<stop offset="0.738" stop-color="#D8B658"/>
</linearGradient>
<linearGradient id="paint6_linear_21_535" x1="41.602" y1="113.918" x2="41.602" y2="-99.9232" gradientUnits="userSpaceOnUse">
<stop offset="0.2172" stop-color="#B52F2B"/>
<stop offset="0.2263" stop-color="#B73B2D"/>
<stop offset="0.2582" stop-color="#BE5A34"/>
<stop offset="0.2936" stop-color="#C3723C"/>
<stop offset="0.3322" stop-color="#C98643"/>
<stop offset="0.375" stop-color="#CD964A"/>
<stop offset="0.4238" stop-color="#D1A450"/>
<stop offset="0.4824" stop-color="#D5AE54"/>
<stop offset="0.5605" stop-color="#D7B557"/>
<stop offset="0.738" stop-color="#D8B658"/>
</linearGradient>
<linearGradient id="paint7_linear_21_535" x1="56.6455" y1="113.918" x2="56.6455" y2="-99.9232" gradientUnits="userSpaceOnUse">
<stop offset="0.2172" stop-color="#B52F2B"/>
<stop offset="0.2263" stop-color="#B73B2D"/>
<stop offset="0.2582" stop-color="#BE5A34"/>
<stop offset="0.2936" stop-color="#C3723C"/>
<stop offset="0.3322" stop-color="#C98643"/>
<stop offset="0.375" stop-color="#CD964A"/>
<stop offset="0.4238" stop-color="#D1A450"/>
<stop offset="0.4824" stop-color="#D5AE54"/>
<stop offset="0.5605" stop-color="#D7B557"/>
<stop offset="0.738" stop-color="#D8B658"/>
</linearGradient>
<linearGradient id="paint8_linear_21_535" x1="76.7863" y1="113.918" x2="76.7863" y2="-99.9232" gradientUnits="userSpaceOnUse">
<stop offset="0.2172" stop-color="#B52F2B"/>
<stop offset="0.2263" stop-color="#B73B2D"/>
<stop offset="0.2582" stop-color="#BE5A34"/>
<stop offset="0.2936" stop-color="#C3723C"/>
<stop offset="0.3322" stop-color="#C98643"/>
<stop offset="0.375" stop-color="#CD964A"/>
<stop offset="0.4238" stop-color="#D1A450"/>
<stop offset="0.4824" stop-color="#D5AE54"/>
<stop offset="0.5605" stop-color="#D7B557"/>
<stop offset="0.738" stop-color="#D8B658"/>
</linearGradient>
<linearGradient id="paint9_linear_21_535" x1="97.1142" y1="113.919" x2="97.1142" y2="-99.9227" gradientUnits="userSpaceOnUse">
<stop offset="0.2172" stop-color="#B52F2B"/>
<stop offset="0.2263" stop-color="#B73B2D"/>
<stop offset="0.2582" stop-color="#BE5A34"/>
<stop offset="0.2936" stop-color="#C3723C"/>
<stop offset="0.3322" stop-color="#C98643"/>
<stop offset="0.375" stop-color="#CD964A"/>
<stop offset="0.4238" stop-color="#D1A450"/>
<stop offset="0.4824" stop-color="#D5AE54"/>
<stop offset="0.5605" stop-color="#D7B557"/>
<stop offset="0.738" stop-color="#D8B658"/>
</linearGradient>
<linearGradient id="paint10_linear_21_535" x1="34.0381" y1="113.917" x2="34.0381" y2="-99.9239" gradientUnits="userSpaceOnUse">
<stop offset="0.2172" stop-color="#B52F2B"/>
<stop offset="0.2263" stop-color="#B73B2D"/>
<stop offset="0.2582" stop-color="#BE5A34"/>
<stop offset="0.2936" stop-color="#C3723C"/>
<stop offset="0.3322" stop-color="#C98643"/>
<stop offset="0.375" stop-color="#CD964A"/>
<stop offset="0.4238" stop-color="#D1A450"/>
<stop offset="0.4824" stop-color="#D5AE54"/>
<stop offset="0.5605" stop-color="#D7B557"/>
<stop offset="0.738" stop-color="#D8B658"/>
</linearGradient>
<linearGradient id="paint11_linear_21_535" x1="49.6723" y1="113.918" x2="49.6723" y2="-99.9233" gradientUnits="userSpaceOnUse">
<stop offset="0.2172" stop-color="#B52F2B"/>
<stop offset="0.2263" stop-color="#B73B2D"/>
<stop offset="0.2582" stop-color="#BE5A34"/>
<stop offset="0.2936" stop-color="#C3723C"/>
<stop offset="0.3322" stop-color="#C98643"/>
<stop offset="0.375" stop-color="#CD964A"/>
<stop offset="0.4238" stop-color="#D1A450"/>
<stop offset="0.4824" stop-color="#D5AE54"/>
<stop offset="0.5605" stop-color="#D7B557"/>
<stop offset="0.738" stop-color="#D8B658"/>
</linearGradient>
<linearGradient id="paint12_linear_21_535" x1="69.8748" y1="113.918" x2="69.8748" y2="-99.9233" gradientUnits="userSpaceOnUse">
<stop offset="0.2172" stop-color="#B52F2B"/>
<stop offset="0.2263" stop-color="#B73B2D"/>
<stop offset="0.2582" stop-color="#BE5A34"/>
<stop offset="0.2936" stop-color="#C3723C"/>
<stop offset="0.3322" stop-color="#C98643"/>
<stop offset="0.375" stop-color="#CD964A"/>
<stop offset="0.4238" stop-color="#D1A450"/>
<stop offset="0.4824" stop-color="#D5AE54"/>
<stop offset="0.5605" stop-color="#D7B557"/>
<stop offset="0.738" stop-color="#D8B658"/>
</linearGradient>
<linearGradient id="paint13_linear_21_535" x1="85.8509" y1="113.918" x2="85.8509" y2="-99.9233" gradientUnits="userSpaceOnUse">
<stop offset="0.2172" stop-color="#B52F2B"/>
<stop offset="0.2263" stop-color="#B73B2D"/>
<stop offset="0.2582" stop-color="#BE5A34"/>
<stop offset="0.2936" stop-color="#C3723C"/>
<stop offset="0.3322" stop-color="#C98643"/>
<stop offset="0.375" stop-color="#CD964A"/>
<stop offset="0.4238" stop-color="#D1A450"/>
<stop offset="0.4824" stop-color="#D5AE54"/>
<stop offset="0.5605" stop-color="#D7B557"/>
<stop offset="0.738" stop-color="#D8B658"/>
</linearGradient>
<linearGradient id="paint14_linear_21_535" x1="105.618" y1="113.918" x2="105.618" y2="-99.9233" gradientUnits="userSpaceOnUse">
<stop offset="0.2172" stop-color="#B52F2B"/>
<stop offset="0.2263" stop-color="#B73B2D"/>
<stop offset="0.2582" stop-color="#BE5A34"/>
<stop offset="0.2936" stop-color="#C3723C"/>
<stop offset="0.3322" stop-color="#C98643"/>
<stop offset="0.375" stop-color="#CD964A"/>
<stop offset="0.4238" stop-color="#D1A450"/>
<stop offset="0.4824" stop-color="#D5AE54"/>
<stop offset="0.5605" stop-color="#D7B557"/>
<stop offset="0.738" stop-color="#D8B658"/>
</linearGradient>
<linearGradient id="paint15_linear_21_535" x1="131.448" y1="113.918" x2="131.448" y2="-99.9233" gradientUnits="userSpaceOnUse">
<stop offset="0.2172" stop-color="#B52F2B"/>
<stop offset="0.2263" stop-color="#B73B2D"/>
<stop offset="0.2582" stop-color="#BE5A34"/>
<stop offset="0.2936" stop-color="#C3723C"/>
<stop offset="0.3322" stop-color="#C98643"/>
<stop offset="0.375" stop-color="#CD964A"/>
<stop offset="0.4238" stop-color="#D1A450"/>
<stop offset="0.4824" stop-color="#D5AE54"/>
<stop offset="0.5605" stop-color="#D7B557"/>
<stop offset="0.738" stop-color="#D8B658"/>
</linearGradient>
<linearGradient id="paint16_linear_21_535" x1="34.0381" y1="113.917" x2="34.0381" y2="-99.9239" gradientUnits="userSpaceOnUse">
<stop offset="0.2172" stop-color="#B52F2B"/>
<stop offset="0.2263" stop-color="#B73B2D"/>
<stop offset="0.2582" stop-color="#BE5A34"/>
<stop offset="0.2936" stop-color="#C3723C"/>
<stop offset="0.3322" stop-color="#C98643"/>
<stop offset="0.375" stop-color="#CD964A"/>
<stop offset="0.4238" stop-color="#D1A450"/>
<stop offset="0.4824" stop-color="#D5AE54"/>
<stop offset="0.5605" stop-color="#D7B557"/>
<stop offset="0.738" stop-color="#D8B658"/>
</linearGradient>
<linearGradient id="paint17_linear_21_535" x1="49.6723" y1="113.918" x2="49.6723" y2="-99.9233" gradientUnits="userSpaceOnUse">
<stop offset="0.2172" stop-color="#B52F2B"/>
<stop offset="0.2263" stop-color="#B73B2D"/>
<stop offset="0.2582" stop-color="#BE5A34"/>
<stop offset="0.2936" stop-color="#C3723C"/>
<stop offset="0.3322" stop-color="#C98643"/>
<stop offset="0.375" stop-color="#CD964A"/>
<stop offset="0.4238" stop-color="#D1A450"/>
<stop offset="0.4824" stop-color="#D5AE54"/>
<stop offset="0.5605" stop-color="#D7B557"/>
<stop offset="0.738" stop-color="#D8B658"/>
</linearGradient>
<linearGradient id="paint18_linear_21_535" x1="69.8748" y1="113.918" x2="69.8748" y2="-99.9233" gradientUnits="userSpaceOnUse">
<stop offset="0.2172" stop-color="#B52F2B"/>
<stop offset="0.2263" stop-color="#B73B2D"/>
<stop offset="0.2582" stop-color="#BE5A34"/>
<stop offset="0.2936" stop-color="#C3723C"/>
<stop offset="0.3322" stop-color="#C98643"/>
<stop offset="0.375" stop-color="#CD964A"/>
<stop offset="0.4238" stop-color="#D1A450"/>
<stop offset="0.4824" stop-color="#D5AE54"/>
<stop offset="0.5605" stop-color="#D7B557"/>
<stop offset="0.738" stop-color="#D8B658"/>
</linearGradient>
<linearGradient id="paint19_linear_21_535" x1="85.8509" y1="113.918" x2="85.8509" y2="-99.9233" gradientUnits="userSpaceOnUse">
<stop offset="0.2172" stop-color="#B52F2B"/>
<stop offset="0.2263" stop-color="#B73B2D"/>
<stop offset="0.2582" stop-color="#BE5A34"/>
<stop offset="0.2936" stop-color="#C3723C"/>
<stop offset="0.3322" stop-color="#C98643"/>
<stop offset="0.375" stop-color="#CD964A"/>
<stop offset="0.4238" stop-color="#D1A450"/>
<stop offset="0.4824" stop-color="#D5AE54"/>
<stop offset="0.5605" stop-color="#D7B557"/>
<stop offset="0.738" stop-color="#D8B658"/>
</linearGradient>
<linearGradient id="paint20_linear_21_535" x1="105.618" y1="113.918" x2="105.618" y2="-99.9233" gradientUnits="userSpaceOnUse">
<stop offset="0.2172" stop-color="#B52F2B"/>
<stop offset="0.2263" stop-color="#B73B2D"/>
<stop offset="0.2582" stop-color="#BE5A34"/>
<stop offset="0.2936" stop-color="#C3723C"/>
<stop offset="0.3322" stop-color="#C98643"/>
<stop offset="0.375" stop-color="#CD964A"/>
<stop offset="0.4238" stop-color="#D1A450"/>
<stop offset="0.4824" stop-color="#D5AE54"/>
<stop offset="0.5605" stop-color="#D7B557"/>
<stop offset="0.738" stop-color="#D8B658"/>
</linearGradient>
<linearGradient id="paint21_linear_21_535" x1="131.448" y1="113.918" x2="131.448" y2="-99.9233" gradientUnits="userSpaceOnUse">
<stop offset="0.2172" stop-color="#B52F2B"/>
<stop offset="0.2263" stop-color="#B73B2D"/>
<stop offset="0.2582" stop-color="#BE5A34"/>
<stop offset="0.2936" stop-color="#C3723C"/>
<stop offset="0.3322" stop-color="#C98643"/>
<stop offset="0.375" stop-color="#CD964A"/>
<stop offset="0.4238" stop-color="#D1A450"/>
<stop offset="0.4824" stop-color="#D5AE54"/>
<stop offset="0.5605" stop-color="#D7B557"/>
<stop offset="0.738" stop-color="#D8B658"/>
</linearGradient>
<linearGradient id="paint22_linear_21_535" x1="117.469" y1="113.918" x2="117.469" y2="-99.9232" gradientUnits="userSpaceOnUse">
<stop offset="0.2172" stop-color="#B52F2B"/>
<stop offset="0.2263" stop-color="#B73B2D"/>
<stop offset="0.2582" stop-color="#BE5A34"/>
<stop offset="0.2936" stop-color="#C3723C"/>
<stop offset="0.3322" stop-color="#C98643"/>
<stop offset="0.375" stop-color="#CD964A"/>
<stop offset="0.4238" stop-color="#D1A450"/>
<stop offset="0.4824" stop-color="#D5AE54"/>
<stop offset="0.5605" stop-color="#D7B557"/>
<stop offset="0.738" stop-color="#D8B658"/>
</linearGradient>
<linearGradient id="paint23_linear_21_535" x1="86.5088" y1="113.919" x2="86.5088" y2="-99.9222" gradientUnits="userSpaceOnUse">
<stop offset="0.2172" stop-color="#B52F2B"/>
<stop offset="0.2263" stop-color="#B73B2D"/>
<stop offset="0.2582" stop-color="#BE5A34"/>
<stop offset="0.2936" stop-color="#C3723C"/>
<stop offset="0.3322" stop-color="#C98643"/>
<stop offset="0.375" stop-color="#CD964A"/>
<stop offset="0.4238" stop-color="#D1A450"/>
<stop offset="0.4824" stop-color="#D5AE54"/>
<stop offset="0.5605" stop-color="#D7B557"/>
<stop offset="0.738" stop-color="#D8B658"/>
</linearGradient>
</defs>
</svg>
