
<svg xmlns="http://www.w3.org/2000/svg" width="154" height="95" fill="none" xmlns:v="https://vecta.io/nano"><path d="M138.825 82.945a7.51 7.51 0 0 0 2.582-3.346l11.913-32.701h-31.099l-.855 2.341c-.083-.166-.166-.324-.274-.482-.291-.423-.648-.772-1.046-1.054h1.345l2.133-6.708h2.624l3.213-10.087h-2.624l6.633-20.846h-11.539l-15.002 19.219a4.5 4.5 0 0 0-.996-1.486l-.066-.066-4.243-3.487h8.46l2.947-8.028c.257-.648.39-1.295.39-1.918 0-.855-.24-1.644-.68-2.3-.781-1.245-2.109-1.926-3.745-1.926H97.523c-1.195 0-2.349.349-3.437 1.038l.374-1.038H84.065l-4.79 13.242h-.971l4.848-13.242H72.75l-.664 1.818c-.789-1.171-2.084-1.818-3.661-1.818H57.848L61.509 0H34.511l-8.144 22.382h-3.653L30.858 0H20.473L0 56.271h10.402l8.642-23.743h3.653l-8.642 23.743h10.402l9.331-25.611.091-1.029v-.091c0-.556-.116-1.096-.349-1.577a6 6 0 0 0 2.15-2.482l.041-.083 5.521-15.242h1.968L29.812 46.939h-1.876L24.25 57.084h5.156L19.46 84.373h10.402l9.946-27.288h2.15l-9.946 27.289h.706l-3.927 10.469h111.105l4.491-10.635h-8.086c.863-.249 1.71-.656 2.524-1.262zm-12.146 1.22h-3.595a5.17 5.17 0 0 0 1.96-.913c.415.44.979.739 1.635.913zm-59.55-36.686h1.046a7.62 7.62 0 0 0-1.337.789l.291-.789zm-7.804-.573h-.482a6.92 6.92 0 0 0 .598-.316l-.116.316zm-3.495.573h.415c.166 0 .332-.008.498-.025l-4.583 12.685h-.971l4.641-12.66zm-7.356 22.805l-5.039 13.881h-.98l5.031-13.881h.988zm19.352 0h1.66l-5.039 13.881h-1.66l5.039-13.881zm18.298-21.045c-.066-.141-.141-.274-.224-.407a3.98 3.98 0 0 0-1.619-1.461c.332.066.689.108 1.054.108h1.428l-.639 1.76zm-4.533-3.686a3.87 3.87 0 0 0 1.619 1.461c-.332-.066-.689-.108-1.054-.108h-1.054l.49-1.353zm-7.273 11.498l-1.137 3.097h-1.652l1.137-3.097h1.652zm1.312 24.947a3.09 3.09 0 0 0 .224.399 3.97 3.97 0 0 0 2.424 1.76h-3.445l.797-2.159zm15.5 1.494c.423.307.897.54 1.42.672h-1.669l.249-.672zm10.535-9.298l6.252-17.143h1.66l-6.251 17.143h-1.661zm7.472 8.784c.606-.432 1.121-.913 1.544-1.445.108.307.249.606.424.872.556.888 1.394 1.494 2.424 1.76h-6.932c.863-.207 1.71-.606 2.54-1.187zm-9.73-62.787h1.652l-1.037 2.814-1.262-1.038.648-1.777zm1.262 25.902c1.196-.888 2.051-1.992 2.582-3.337l.648-1.76h8.468l-1.877 5.903h-4.449c-1.387 0-2.715.465-3.961 1.386-1.187.888-2.05 1.992-2.581 3.346L91.28 74.186h-3.836l9.747-26.732c1.204-.083 2.374-.54 3.478-1.361zm-4.757-11.78l-1.096 3.03h-1.652l1.494-4.076 1.253 1.046zm-9.489-5.355c.639-.432 1.171-.996 1.602-1.652.233.432.54.83.93 1.187l.033.033 4.674 3.902h-7.331l.083-.232c.191-.581.291-1.112.291-1.627 0-.589-.116-1.112-.34-1.577.017-.008.041-.025.058-.033zm-10.834 4.475l-4.89 13.474c-.34.008-.681.033-1.013.1l4.923-13.574h.98zM60.588 20.19l-1.494 4.043h8.485l-2.989 8.194h-8.443l-1.801 4.915h-1.66l6.251-17.144h1.652v-.008zm-4.45-10.07c-1.046.158-2.059.589-3.014 1.295l.473-1.295h2.54zM40.862 45.08l.307.548a4.12 4.12 0 0 0 1.403 1.279H40.19l.672-1.826z" fill="#1e2326"/><use href="#N" fill="url(#A)"/><use href="#O" fill="url(#B)"/><use href="#P" fill="url(#C)"/><use href="#Q" fill="url(#D)"/><use href="#R" fill="url(#E)"/><use href="#N" fill="url(#A)"/><use href="#O" fill="url(#B)"/><use href="#P" fill="url(#C)"/><use href="#Q" fill="url(#D)"/><use href="#R" fill="url(#E)"/><use href="#S" fill="url(#F)"/><use href="#T" fill="url(#G)"/><use href="#U" fill="url(#H)"/><use href="#V" fill="url(#I)"/><use href="#W" fill="url(#J)"/><use href="#X" fill="url(#K)"/><use href="#S" fill="url(#F)"/><use href="#T" fill="url(#G)"/><use href="#U" fill="url(#H)"/><use href="#V" fill="url(#I)"/><use href="#W" fill="url(#J)"/><use href="#X" fill="url(#K)"/><use href="#Y" fill="url(#L)"/><use href="#Y" fill="#47979b"/><path d="M138.559 92.808H31.655l2.491-6.65h107.22l-2.806 6.65z" fill="url(#M)"/><defs><linearGradient id="A" x1="30.755" y1="113.919" x2="30.755" y2="-99.923" href="#Z"><stop offset=".217" stop-color="#b52f2b"/><stop offset=".226" stop-color="#b73b2d"/><stop offset=".258" stop-color="#be5a34"/><stop offset=".294" stop-color="#c3723c"/><stop offset=".332" stop-color="#c98643"/><stop offset=".375" stop-color="#cd964a"/><stop offset=".424" stop-color="#d1a450"/><stop offset=".482" stop-color="#d5ae54"/><stop offset=".561" stop-color="#d7b557"/><stop offset=".738" stop-color="#d8b658"/></linearGradient><linearGradient id="B" x1="41.602" y1="113.918" x2="41.602" y2="-99.923" href="#Z"><stop offset=".217" stop-color="#b52f2b"/><stop offset=".226" stop-color="#b73b2d"/><stop offset=".258" stop-color="#be5a34"/><stop offset=".294" stop-color="#c3723c"/><stop offset=".332" stop-color="#c98643"/><stop offset=".375" stop-color="#cd964a"/><stop offset=".424" stop-color="#d1a450"/><stop offset=".482" stop-color="#d5ae54"/><stop offset=".561" stop-color="#d7b557"/><stop offset=".738" stop-color="#d8b658"/></linearGradient><linearGradient id="C" x1="56.646" y1="113.918" x2="56.646" y2="-99.923" href="#Z"><stop offset=".217" stop-color="#b52f2b"/><stop offset=".226" stop-color="#b73b2d"/><stop offset=".258" stop-color="#be5a34"/><stop offset=".294" stop-color="#c3723c"/><stop offset=".332" stop-color="#c98643"/><stop offset=".375" stop-color="#cd964a"/><stop offset=".424" stop-color="#d1a450"/><stop offset=".482" stop-color="#d5ae54"/><stop offset=".561" stop-color="#d7b557"/><stop offset=".738" stop-color="#d8b658"/></linearGradient><linearGradient id="D" x1="76.786" y1="113.918" x2="76.786" y2="-99.923" href="#Z"><stop offset=".217" stop-color="#b52f2b"/><stop offset=".226" stop-color="#b73b2d"/><stop offset=".258" stop-color="#be5a34"/><stop offset=".294" stop-color="#c3723c"/><stop offset=".332" stop-color="#c98643"/><stop offset=".375" stop-color="#cd964a"/><stop offset=".424" stop-color="#d1a450"/><stop offset=".482" stop-color="#d5ae54"/><stop offset=".561" stop-color="#d7b557"/><stop offset=".738" stop-color="#d8b658"/></linearGradient><linearGradient id="E" x1="97.114" y1="113.919" x2="97.114" y2="-99.923" href="#Z"><stop offset=".217" stop-color="#b52f2b"/><stop offset=".226" stop-color="#b73b2d"/><stop offset=".258" stop-color="#be5a34"/><stop offset=".294" stop-color="#c3723c"/><stop offset=".332" stop-color="#c98643"/><stop offset=".375" stop-color="#cd964a"/><stop offset=".424" stop-color="#d1a450"/><stop offset=".482" stop-color="#d5ae54"/><stop offset=".561" stop-color="#d7b557"/><stop offset=".738" stop-color="#d8b658"/></linearGradient><linearGradient id="F" x1="34.038" y1="113.917" x2="34.038" y2="-99.924" href="#Z"><stop offset=".217" stop-color="#b52f2b"/><stop offset=".226" stop-color="#b73b2d"/><stop offset=".258" stop-color="#be5a34"/><stop offset=".294" stop-color="#c3723c"/><stop offset=".332" stop-color="#c98643"/><stop offset=".375" stop-color="#cd964a"/><stop offset=".424" stop-color="#d1a450"/><stop offset=".482" stop-color="#d5ae54"/><stop offset=".561" stop-color="#d7b557"/><stop offset=".738" stop-color="#d8b658"/></linearGradient><linearGradient id="G" x1="49.672" y1="113.918" x2="49.672" y2="-99.923" href="#Z"><stop offset=".217" stop-color="#b52f2b"/><stop offset=".226" stop-color="#b73b2d"/><stop offset=".258" stop-color="#be5a34"/><stop offset=".294" stop-color="#c3723c"/><stop offset=".332" stop-color="#c98643"/><stop offset=".375" stop-color="#cd964a"/><stop offset=".424" stop-color="#d1a450"/><stop offset=".482" stop-color="#d5ae54"/><stop offset=".561" stop-color="#d7b557"/><stop offset=".738" stop-color="#d8b658"/></linearGradient><linearGradient id="H" x1="69.875" y1="113.918" x2="69.875" y2="-99.923" href="#Z"><stop offset=".217" stop-color="#b52f2b"/><stop offset=".226" stop-color="#b73b2d"/><stop offset=".258" stop-color="#be5a34"/><stop offset=".294" stop-color="#c3723c"/><stop offset=".332" stop-color="#c98643"/><stop offset=".375" stop-color="#cd964a"/><stop offset=".424" stop-color="#d1a450"/><stop offset=".482" stop-color="#d5ae54"/><stop offset=".561" stop-color="#d7b557"/><stop offset=".738" stop-color="#d8b658"/></linearGradient><linearGradient id="I" x1="85.851" y1="113.918" x2="85.851" y2="-99.923" href="#Z"><stop offset=".217" stop-color="#b52f2b"/><stop offset=".226" stop-color="#b73b2d"/><stop offset=".258" stop-color="#be5a34"/><stop offset=".294" stop-color="#c3723c"/><stop offset=".332" stop-color="#c98643"/><stop offset=".375" stop-color="#cd964a"/><stop offset=".424" stop-color="#d1a450"/><stop offset=".482" stop-color="#d5ae54"/><stop offset=".561" stop-color="#d7b557"/><stop offset=".738" stop-color="#d8b658"/></linearGradient><linearGradient id="J" x1="105.618" y1="113.918" x2="105.618" y2="-99.923" href="#Z"><stop offset=".217" stop-color="#b52f2b"/><stop offset=".226" stop-color="#b73b2d"/><stop offset=".258" stop-color="#be5a34"/><stop offset=".294" stop-color="#c3723c"/><stop offset=".332" stop-color="#c98643"/><stop offset=".375" stop-color="#cd964a"/><stop offset=".424" stop-color="#d1a450"/><stop offset=".482" stop-color="#d5ae54"/><stop offset=".561" stop-color="#d7b557"/><stop offset=".738" stop-color="#d8b658"/></linearGradient><linearGradient id="K" x1="131.448" y1="113.918" x2="131.448" y2="-99.923" href="#Z"><stop offset=".217" stop-color="#b52f2b"/><stop offset=".226" stop-color="#b73b2d"/><stop offset=".258" stop-color="#be5a34"/><stop offset=".294" stop-color="#c3723c"/><stop offset=".332" stop-color="#c98643"/><stop offset=".375" stop-color="#cd964a"/><stop offset=".424" stop-color="#d1a450"/><stop offset=".482" stop-color="#d5ae54"/><stop offset=".561" stop-color="#d7b557"/><stop offset=".738" stop-color="#d8b658"/></linearGradient><linearGradient id="L" x1="117.469" y1="113.918" x2="117.469" y2="-99.923" href="#Z"><stop offset=".217" stop-color="#b52f2b"/><stop offset=".226" stop-color="#b73b2d"/><stop offset=".258" stop-color="#be5a34"/><stop offset=".294" stop-color="#c3723c"/><stop offset=".332" stop-color="#c98643"/><stop offset=".375" stop-color="#cd964a"/><stop offset=".424" stop-color="#d1a450"/><stop offset=".482" stop-color="#d5ae54"/><stop offset=".561" stop-color="#d7b557"/><stop offset=".738" stop-color="#d8b658"/></linearGradient><linearGradient id="M" x1="86.509" y1="113.919" x2="86.509" y2="-99.922" href="#Z"><stop offset=".217" stop-color="#b52f2b"/><stop offset=".226" stop-color="#b73b2d"/><stop offset=".258" stop-color="#be5a34"/><stop offset=".294" stop-color="#c3723c"/><stop offset=".332" stop-color="#c98643"/><stop offset=".375" stop-color="#cd964a"/><stop offset=".424" stop-color="#d1a450"/><stop offset=".482" stop-color="#d5ae54"/><stop offset=".561" stop-color="#d7b557"/><stop offset=".738" stop-color="#d8b658"/></linearGradient><path id="N" d="M23.046 54.254h-6.152l8.642-23.743h-7.895L8.999 54.254H2.847l19.02-52.277h6.152l-8.144 22.382h7.895l8.144-22.382h22.756l-2.242 6.152H39.832l-5.969 16.471a3.98 3.98 0 0 1-1.461 1.677c-.639.415-1.212.623-1.71.623h-.996l-.374.996h.996c.498 0 .913.207 1.245.623.207.291.307.623.307.996l-.066.681-8.759 24.059z"/><path id="O" d="M38.587 45.487h-6.152l12.187-33.448h6.152L38.587 45.487z"/><path id="P" d="M56.245 45.487H44.872c-.913 0-1.594-.332-2.05-.996-.249-.374-.374-.789-.374-1.245 0-.373.083-.764.249-1.179l9.697-26.608c.374-.955 1.005-1.76 1.893-2.424s1.81-.996 2.765-.996h11.374c.955 0 1.636.332 2.051.996.249.374.374.789.374 1.245 0 .374-.083.764-.249 1.179l-2.491 6.774h-6.152l1.494-4.043h-5.903l-7.704 21.137h5.903l1.801-4.915H63.7l-2.798 7.646c-.374.955-1.005 1.76-1.893 2.424-.897.672-1.818 1.005-2.765 1.005z"/><path id="Q" d="M79.491 45.487h-6.152l5.097-14.047h-5.222l-5.097 14.047h-6.152l12.187-33.448h6.152L75.456 25.28h5.222l4.79-13.242h6.152l-4.848 13.424c-.332.789-.822 1.395-1.461 1.835-.639.432-1.254.656-1.835.656h-.996l-.374 1.054h.996c.581 0 1.038.224 1.37.681.166.207.249.498.249.872 0 .291-.066.623-.191.996l-5.039 13.931z"/><path id="R" d="M96.709 45.487H85.335c-.955 0-1.635-.332-2.051-.996-.249-.374-.374-.789-.374-1.245 0-.374.083-.764.249-1.179l2.798-7.646h6.152l-1.801 4.915h5.903l2.051-5.654-7.962-6.65c-.54-.498-.805-1.096-.805-1.802 0-.373.083-.789.249-1.245l3.105-8.518c.374-.955 1.005-1.76 1.893-2.424s1.81-.996 2.765-.996h11.373c.955 0 1.636.332 2.051.996.249.374.374.789.374 1.245 0 .374-.083.764-.249 1.179l-2.491 6.774h-6.152l1.495-4.043h-5.903l-1.619 4.417 8.02 6.592a2.45 2.45 0 0 1 .747 1.802c0 .374-.067.789-.183 1.245l-3.603 9.821c-.373.955-1.004 1.76-1.893 2.424-.888.656-1.81.988-2.765.988z"/><path id="S" d="M28.442 82.346H22.29l9.946-27.288h-5.164l2.242-6.152h16.471l-2.242 6.152H38.38l-9.937 27.288z"/><path id="T" d="M52.377 82.347h-6.152L51.322 68.3H46.1l-5.097 14.047h-6.152l12.187-33.448h6.152L48.342 62.14h5.222l4.79-13.242h6.152L52.377 82.347z"/><path id="U" d="M73.389 82.347h-6.152L72.334 68.3h-5.903l-5.097 14.047h-6.152l10.942-30.028c.373-.955 1.004-1.76 1.893-2.424s1.81-.996 2.764-.996h11.374c.955 0 1.635.332 2.05.996.249.373.374.789.374 1.245 0 .374-.083.764-.249 1.179L73.389 82.347zm1.179-20.207l2.615-7.09H71.28l-2.607 7.09h5.894z"/><path id="V" d="M89.428 82.347h-9.821c-.955 0-1.635-.332-2.051-.996-.249-.374-.374-.789-.374-1.245 0-.374.083-.764.249-1.179l10.942-30.028h6.152L84.58 76.187h7.09l-2.242 6.16z"/><path id="W" d="M105.218 82.347H93.845c-.913 0-1.594-.332-2.051-.996-.249-.374-.374-.789-.374-1.245 0-.374.083-.764.249-1.179l9.696-26.608c.374-.955 1.005-1.76 1.893-2.424s1.81-.996 2.765-.996h11.373c.913 0 1.594.332 2.051.996.249.373.373.789.373 1.245 0 .374-.083.764-.249 1.179l-9.696 26.608c-.332.955-.963 1.76-1.893 2.424-.938.664-1.86.996-2.765.996zm-.498-6.16l7.704-21.137h-5.902l-7.704 21.137h5.902z"/><path id="X" d="M134.864 82.347h-6.965c-1.204 0-1.801-.54-1.801-1.619 0-.249.166-.83.498-1.743h-1.055l-.373.996c-.208.581-.623 1.121-1.246 1.619a3.37 3.37 0 0 1-2.175.747h-6.899c-.954 0-1.635-.332-2.05-.996-.249-.374-.374-.789-.374-1.245 0-.374.083-.764.249-1.179l10.942-30.028h6.152l-9.946 27.288h4.168l9.946-27.288h6.151l-9.945 27.288h4.225l9.888-27.288h6.218L139.53 78.927c-.373.955-1.004 1.76-1.893 2.424-.896.664-1.818.996-2.773.996z"/><path id="Y" d="M122.802 12.055h7.837l-6.633 20.846h2.623l-1.943 6.102h-2.623l-2.134 6.708h-6.982l2.134-6.708h-10.793l1.744-5.471 16.77-21.477zm-2.474 10.162l-8.294 10.685h4.99l3.403-10.685h-.099z"/><linearGradient id="Z" gradientUnits="userSpaceOnUse"/></defs></svg>