
<svg width="18" height="14" viewBox="0 0 18 14" fill="none" xmlns="http://www.w3.org/2000/svg">
<path fill-rule="evenodd" clip-rule="evenodd" d="M1.29333 13.0642C1.54493 13.1854 1.82293 13.2502 2.10753 13.2502H15.8749C16.0805 13.2502 16.2827 13.2164 16.4741 13.1518L11.0421 7.47281C10.7593 7.74421 10.5067 7.98641 10.2959 8.18781C9.57113 8.88121 8.42873 8.88121 7.70393 8.18781C7.45413 7.94901 7.14433 7.65181 6.79493 7.31641L1.29333 13.0642Z" fill="#303030"/>
<path fill-rule="evenodd" clip-rule="evenodd" d="M17.3198 1.42969C16.5204 2.20029 13.9042 4.72209 11.9436 6.60649L17.461 12.3747C17.6484 12.0777 17.75 11.7315 17.75 11.3747V2.62469C17.75 2.18669 17.5968 1.76449 17.3198 1.42969Z" fill="#303030"/>
<path fill-rule="evenodd" clip-rule="evenodd" d="M0.671344 1.41992C0.388944 1.75632 0.232544 2.18272 0.232544 2.62532V11.3753C0.232544 11.6551 0.295144 11.9285 0.412544 12.1767L5.89354 6.45032C3.97574 4.60612 1.50594 2.22492 0.671344 1.41992Z" fill="#303030"/>
<path fill-rule="evenodd" clip-rule="evenodd" d="M1.80432 0.7748L8.56792 7.2844C8.80952 7.5156 9.19032 7.5156 9.43192 7.2844C10.9855 5.7982 14.8191 2.1044 16.1955 0.7776C16.0903 0.7594 15.9831 0.75 15.8749 0.75H2.10752C2.00532 0.75 1.90392 0.7584 1.80432 0.7748Z" fill="#303030"/>
</svg>
