   <svg width="24" height="23" viewBox="0 0 24 23" fill="none" xmlns="http://www.w3.org/2000/svg">
            <path d="M12.3841 2.63321L12.0114 3.01156L11.6387 2.63214C10.3512 1.34547 8.61671 0.628354 6.8125 0.636792C5.00828 0.645231 3.28033 1.37855 2.00454 2.6772C0.72876 3.97586 0.00836257 5.7348 7.2347e-05 7.57136C-0.00821787 9.40792 0.69627 11.1735 1.96028 12.4841L2.33301 12.8635L12.0114 22.7154L21.6898 12.8635L22.0625 12.4841C23.3165 11.1715 24.0124 9.40917 23.9998 7.57831C23.9872 5.74746 23.2671 3.99525 21.9952 2.70068C20.7233 1.40611 19.0019 0.673257 17.2033 0.660631C15.4046 0.648005 13.6735 1.35662 12.3841 2.63321Z" fill="#303030"/>
</svg>