 <svg width="24" height="25" viewBox="0 0 24 25" fill="none" xmlns="http://www.w3.org/2000/svg">
            <g clip-path="url(#clip0_13_3119)">
            <path d="M18.5074 17.0498C17.3575 17.0498 16.3214 17.5482 15.6024 18.3409L9.13493 14.321C9.3076 13.8774 9.40337 13.3956 9.40337 12.8915C9.40337 12.3873 9.3076 11.9055 9.13493 11.462L15.6024 7.44194C16.3214 8.23468 17.3575 8.73322 18.5074 8.73322C20.6735 8.73322 22.4357 6.96471 22.4357 4.79083C22.4357 2.61695 20.6735 0.848633 18.5074 0.848633C16.3412 0.848633 14.579 2.61714 14.579 4.79102C14.579 5.29507 14.675 5.77689 14.8474 6.22048L8.38017 10.2404C7.66112 9.44767 6.62511 8.94913 5.47521 8.94913C3.30908 8.94913 1.54688 10.7178 1.54688 12.8915C1.54688 15.0654 3.30908 16.8339 5.47521 16.8339C6.62511 16.8339 7.66112 16.3355 8.38017 15.5426L14.8474 19.5625C14.675 20.0061 14.579 20.488 14.579 20.9922C14.579 23.1659 16.3412 24.9344 18.5074 24.9344C20.6735 24.9344 22.4357 23.1659 22.4357 20.9922C22.4357 18.8183 20.6735 17.0498 18.5074 17.0498ZM16.0114 4.79102C16.0114 3.40988 17.1311 2.28619 18.5074 2.28619C19.8836 2.28619 21.0033 3.40988 21.0033 4.79102C21.0033 6.17215 19.8836 7.29585 18.5074 7.29585C17.1311 7.29585 16.0114 6.17215 16.0114 4.79102ZM5.47521 15.3963C4.09881 15.3963 2.97912 14.2727 2.97912 12.8915C2.97912 11.5104 4.09881 10.3867 5.47521 10.3867C6.85143 10.3867 7.97093 11.5104 7.97093 12.8915C7.97093 14.2727 6.85143 15.3963 5.47521 15.3963ZM16.0114 20.992C16.0114 19.6109 17.1311 18.4872 18.5074 18.4872C19.8836 18.4872 21.0033 19.6109 21.0033 20.992C21.0033 22.3732 19.8836 23.4968 18.5074 23.4968C17.1311 23.4968 16.0114 22.3732 16.0114 20.992Z" fill="#303030"/>
            </g>
            <defs>
            <clipPath id="clip0_13_3119">
            <rect width="24" height="24.0858" fill="white" transform="translate(0 0.848633)"/>
            </clipPath>
            </defs>
          </svg>