
<svg width="40" height="40" viewBox="0 0 40 40" fill="none" xmlns="http://www.w3.org/2000/svg">
<path d="M20 1.17676C14.1176 1.17676 9.41174 5.88264 9.41174 11.765V16.4709C7.41174 16.4709 5.88232 18.0003 5.88232 20.0003V35.2944C5.88232 37.2944 7.41174 38.8238 9.41174 38.8238H30.5882C32.5882 38.8238 34.1176 37.2944 34.1176 35.2944V20.0003C34.1176 18.0003 32.5882 16.4709 30.5882 16.4709V11.765C30.5882 5.88264 25.8823 1.17676 20 1.17676ZM31.7647 20.0003V35.2944C31.7647 36.0003 31.2941 36.4709 30.5882 36.4709H9.41174C8.70585 36.4709 8.23527 36.0003 8.23527 35.2944V20.0003C8.23527 19.2944 8.70585 18.8238 9.41174 18.8238H10.5882H29.4117H30.5882C31.2941 18.8238 31.7647 19.2944 31.7647 20.0003ZM11.7647 16.4709V11.765C11.7647 7.17676 15.4117 3.5297 20 3.5297C24.5882 3.5297 28.2353 7.17676 28.2353 11.765V16.4709H11.7647Z" fill="#303030"/>
<path d="M19.9999 22.3535C17.9999 22.3535 16.4705 23.8829 16.4705 25.8829C16.4705 27.4123 17.4116 28.7065 18.8234 29.177V31.7653C18.8234 32.4712 19.294 32.9418 19.9999 32.9418C20.7058 32.9418 21.1763 32.4712 21.1763 31.7653V29.177C22.5881 28.7065 23.5293 27.4123 23.5293 25.8829C23.5293 23.8829 21.9999 22.3535 19.9999 22.3535ZM19.9999 27.0594C19.294 27.0594 18.8234 26.5888 18.8234 25.8829C18.8234 25.177 19.294 24.7065 19.9999 24.7065C20.7058 24.7065 21.1763 25.177 21.1763 25.8829C21.1763 26.5888 20.7058 27.0594 19.9999 27.0594Z" fill="#303030"/>
</svg>
